<?xml version="1.0" encoding="UTF-8"?>
<svg id="Layer_1" data-name="Layer 1" xmlns="http://www.w3.org/2000/svg" viewBox="0 0 364.03 135.68" role="img" aria-label="Empereal — Energizing Communities">
  <defs>
    <style>
      .cls-1 {
        fill: #4f4f4f;
      }

      .cls-2 {
        fill: #003b64;
      }

      .cls-3 {
        fill: #f2994a;
      }
    </style>
  </defs>
  <g>
    <path class="cls-2" d="M147.56,30.16c-18.52-1.68-42.8-1.23-60.96,2.42l-16.48,3.31c26.31-11.54,63.98-15.86,92.12-11.69l22.28,3.3c10.95,1.62,21.61,3.29,32.69,4.21,13.5,1.13,26.8,1.05,40.34-.05l-11.19-1.34-28.83-4.37-38.22-5.76c-14.77-2.22-29.6-2.68-44.53-2.27-18.97.53-37.52,3.69-55.51,9.48-5.83,1.87-11.19,4.02-16.84,6.57,13.09-9.59,31.21-16.09,46.94-19.53,14.57-3.19,29.28-4.59,44.2-4.62,9.78-.02,19.21.41,28.88,1.42,9.22.97,18.19,1.83,27.34,3.37l24.59,4.12,29.47,5.38c22.8,4.17,26.21,3.71,47.58-3.3,3.38-1.11,6.24-2.6,9.46-4.07.16-.01.59.07.43.11-5.75,4.73-11.62,7.79-18.39,10.73-.47,0-.32.05.18.18,20.86.3,41.16-3.2,60.94-9.42-9.36,4.81-19.25,7.79-29.2,10.28-9.95,2.5-19.75,3.72-29.91,4.57-7.2.6-14.19.03-21.38.62-5.01.41-9.73,2.13-14.8,2.8-10.37,1.38-20.5,2.24-31.02,2.28-13.36.05-26.48-.25-39.68-2.07l-23.49-3.24c-9.08-1.25-17.88-2.6-27-3.43Z"/>
    <path class="cls-2" d="M47.84,49.3c-11.38,2.34-22.11,5.79-30.79,13.92-2.07,1.93-6.1,6.26-4.85,8.95.31.67,1.17,1.45,2.15,1.81,11.25,4.22,34.09-3.33,43.89-10.87l6.63-5.09c.83,6.8.33,12.37-4.42,17.44-2.88,3.07-6.19,5.42-9.97,7.42-10.39,5.48-22.18,7.87-33.92,6.99-8-.6-15.89-4.64-16.4-13.6-.4-7.15,4.09-13.22,9.24-17.72,8.78-7.69,18.64-10.83,29.2-14.47.2-.07.54-.29.64-.36.14-.09-.43-.53-.6-.55l-9.24-.83c-3.8-.34-7.33-1.11-10.84-2.49-5.93-2.34-8.43-6.53-6.91-12.93,2.34-9.8,11.27-16.27,20.15-20.03C42.49,2.36,54.07.52,65.69,1.05c2.87.13,5.41.77,8.04,1.63,1.13.37,1.97,1.43,2.14,2.64.38,2.69.54,5.39.35,8.08-.14,1.85-1.33,3.01-2.96,3.66-6.05,2.43-11.63,5.33-17.15,8.79-.18.12-.71.22-.92.22-.95.03-.57-2.75,1.7-4.91l4.5-4.28c-1.13-.43-1.98-.47-3.12-.41-7.01.31-13.83,1.63-20.46,3.93-4.74,1.64-12.26,5.31-14.59,9.79-.73,1.41-.37,2.94,1,3.71s2.96,1.35,4.59,1.62c3.74.62,7.38.96,11.2.92l14.6-.16c2.19-.02,4.27.16,6.32.73,3.42.95-.46,7.14-1.94,8.78-.87.96-2.2,1.68-3.49,1.94l-7.65,1.57Z"/>
    <path class="cls-3" d="M295.68,22.99c-2.78.45-5.52,1.59-8.45,1.51-8.36-.22-16.44-1.75-24.78-3.1-.98-10.58,6.47-19.82,16.87-21.22,5.73-.77,11.38.91,15.68,4.71,4.78,4.22,7.19,10.31,6.44,16.65l-5.76,1.45Z"/>
  </g>
  <g>
    <path class="cls-2" d="M136.88,66.27v22.96h-5.32v-22.43c0-8.36-4.2-12.65-11.31-12.65-8.09,0-13.19,5.27-13.19,14.3v20.77h-5.32v-22.43c0-8.36-4.2-12.65-11.39-12.65-8.02,0-13.19,5.27-13.19,14.3v20.77h-5.32v-39.59h5.09v7.23c2.77-4.74,7.87-7.53,14.46-7.53s11.61,2.79,14.01,8.36c2.85-5.12,8.47-8.36,15.58-8.36,9.59,0,15.88,5.57,15.88,16.94Z"/>
    <path class="cls-2" d="M190.22,69.44c0,12.04-8.39,20.17-19.63,20.17-6.29,0-11.69-2.71-14.98-7.83v22.05h-5.32v-54.2h5.09v7.83c3.22-5.27,8.69-8.13,15.21-8.13,11.24,0,19.63,8.13,19.63,20.1ZM184.9,69.44c0-9.18-6.37-15.43-14.68-15.43s-14.68,6.25-14.68,15.43,6.29,15.43,14.68,15.43,14.68-6.17,14.68-15.43Z"/>
    <path class="cls-2" d="M234.35,71.09h-32.96c.6,8.28,6.89,13.77,15.51,13.77,4.79,0,9.07-1.73,12.06-5.19l3,3.46c-3.52,4.22-8.99,6.47-15.21,6.47-12.29,0-20.68-8.43-20.68-20.17s8.17-20.1,19.25-20.1,19.1,8.2,19.1,20.1c0,.45-.07,1.05-.07,1.66ZM201.39,67.1h27.94c-.67-7.75-6.29-13.17-14.01-13.17s-13.26,5.42-13.93,13.17Z"/>
    <path class="cls-2" d="M264.09,49.34v5.19c-.45,0-.9-.08-1.27-.08-8.24,0-13.26,5.27-13.26,14.6v20.17h-5.32v-39.59h5.09v7.75c2.47-5.27,7.49-8.05,14.76-8.05Z"/>
    <path class="cls-2" d="M306.57,71.09h-32.96c.6,8.28,6.89,13.77,15.51,13.77,4.79,0,9.07-1.73,12.06-5.19l3,3.46c-3.52,4.22-8.99,6.47-15.21,6.47-12.29,0-20.68-8.43-20.68-20.17s8.17-20.1,19.25-20.1,19.1,8.2,19.1,20.1c0,.45-.07,1.05-.07,1.66ZM273.61,67.1h27.94c-.67-7.75-6.29-13.17-14.01-13.17s-13.26,5.42-13.93,13.17Z"/>
    <path class="cls-2" d="M345.08,64.69v24.54h-5.09v-6.17c-2.4,4.06-7.04,6.55-13.56,6.55-8.92,0-14.38-4.67-14.38-11.52,0-6.1,3.9-11.22,15.21-11.22h12.51v-2.41c0-6.77-3.82-10.46-11.16-10.46-5.09,0-9.89,1.81-13.11,4.67l-2.4-3.99c3.97-3.39,9.81-5.34,16.03-5.34,10.19,0,15.96,5.12,15.96,15.36ZM339.76,77.34v-6.47h-12.36c-7.64,0-10.11,3.01-10.11,7.08,0,4.59,3.67,7.45,9.96,7.45s10.41-2.86,12.51-8.05Z"/>
    <path class="cls-2" d="M358.49,33.38h5.32v55.85h-5.32v-55.85Z"/>
  </g>
  <g>
    <path class="cls-1" d="M9.84,134.28v1.28H0v-13.98h9.54v1.28H1.47v4.97h7.2v1.26H1.47v5.19h8.37Z"/>
    <path class="cls-1" d="M28.9,121.58v13.98h-1.21l-8.95-11.34v11.34h-1.47v-13.98h1.21l8.97,11.34v-11.34h1.45Z"/>
    <path class="cls-1" d="M47.25,134.28v1.28h-9.84v-13.98h9.54v1.28h-8.07v4.97h7.2v1.26h-7.2v5.19h8.37Z"/>
    <path class="cls-1" d="M64.19,135.56l-3.18-4.49c-.36.04-.72.06-1.11.06h-3.74v4.43h-1.47v-13.98h5.21c3.54,0,5.69,1.8,5.69,4.79,0,2.2-1.15,3.73-3.18,4.39l3.4,4.79h-1.61ZM64.11,126.37c0-2.24-1.47-3.51-4.25-3.51h-3.7v7.01h3.7c2.78,0,4.25-1.3,4.25-3.49Z"/>
    <path class="cls-1" d="M82.83,128.57h1.41v5.33c-1.31,1.18-3.18,1.78-5.11,1.78-4.23,0-7.34-3.02-7.34-7.11s3.1-7.11,7.36-7.11c2.11,0,3.94.68,5.17,2.02l-.91.94c-1.17-1.16-2.56-1.64-4.19-1.64-3.44,0-5.96,2.46-5.96,5.79s2.52,5.79,5.94,5.79c1.33,0,2.56-.3,3.64-1.08v-4.71Z"/>
    <path class="cls-1" d="M92.37,121.58h1.47v13.98h-1.47v-13.98Z"/>
    <path class="cls-1" d="M112.39,134.28v1.28h-11.41v-1.02l9.22-11.68h-9.08v-1.28h11.03v1.02l-9.2,11.68h9.44Z"/>
    <path class="cls-1" d="M119.27,121.58h1.47v13.98h-1.47v-13.98Z"/>
    <path class="cls-1" d="M140.88,121.58v13.98h-1.21l-8.95-11.34v11.34h-1.47v-13.98h1.21l8.97,11.34v-11.34h1.45Z"/>
    <path class="cls-1" d="M159.18,128.57h1.41v5.33c-1.31,1.18-3.18,1.78-5.11,1.78-4.23,0-7.34-3.02-7.34-7.11s3.1-7.11,7.36-7.11c2.11,0,3.94.68,5.17,2.02l-.91.94c-1.17-1.16-2.56-1.64-4.19-1.64-3.44,0-5.96,2.46-5.96,5.79s2.52,5.79,5.94,5.79c1.33,0,2.56-.3,3.64-1.08v-4.71Z"/>
    <path class="cls-1" d="M176.68,128.57c0-4.09,3.1-7.11,7.3-7.11,2.03,0,3.86.68,5.09,2.04l-.93.94c-1.13-1.16-2.52-1.66-4.11-1.66-3.36,0-5.88,2.48-5.88,5.79s2.52,5.79,5.88,5.79c1.59,0,2.98-.5,4.11-1.68l.93.94c-1.23,1.36-3.06,2.06-5.11,2.06-4.17,0-7.28-3.02-7.28-7.11Z"/>
    <path class="cls-1" d="M194.65,128.57c0-4.07,3.1-7.11,7.32-7.11s7.3,3.02,7.3,7.11-3.12,7.11-7.3,7.11-7.32-3.04-7.32-7.11ZM207.79,128.57c0-3.34-2.48-5.79-5.82-5.79s-5.86,2.46-5.86,5.79,2.5,5.79,5.86,5.79,5.82-2.46,5.82-5.79Z"/>
    <path class="cls-1" d="M230.98,121.58v13.98h-1.41v-11.18l-5.47,9.41h-.7l-5.47-9.35v11.12h-1.41v-13.98h1.21l6.04,10.37,5.98-10.37h1.21Z"/>
    <path class="cls-1" d="M253.94,121.58v13.98h-1.41v-11.18l-5.47,9.41h-.7l-5.47-9.35v11.12h-1.41v-13.98h1.21l6.04,10.37,5.98-10.37h1.21Z"/>
    <path class="cls-1" d="M262.33,129.59v-8.01h1.47v7.95c0,3.32,1.55,4.83,4.25,4.83s4.27-1.52,4.27-4.83v-7.95h1.43v8.01c0,4.01-2.15,6.09-5.71,6.09s-5.73-2.08-5.73-6.09Z"/>
    <path class="cls-1" d="M293.8,121.58v13.98h-1.21l-8.95-11.34v11.34h-1.47v-13.98h1.21l8.97,11.34v-11.34h1.45Z"/>
    <path class="cls-1" d="M302.31,121.58h1.47v13.98h-1.47v-13.98Z"/>
    <path class="cls-1" d="M314.99,122.86h-4.89v-1.28h11.25v1.28h-4.89v12.7h-1.47v-12.7Z"/>
    <path class="cls-1" d="M327.67,121.58h1.47v13.98h-1.47v-13.98Z"/>
    <path class="cls-1" d="M347.49,134.28v1.28h-9.84v-13.98h9.54v1.28h-8.07v4.97h7.2v1.26h-7.2v5.19h8.37Z"/>
    <path class="cls-1" d="M353.59,133.86l.58-1.14c.99.98,2.76,1.7,4.59,1.7,2.6,0,3.74-1.1,3.74-2.48,0-3.83-8.57-1.48-8.57-6.65,0-2.06,1.59-3.83,5.13-3.83,1.57,0,3.2.46,4.31,1.24l-.5,1.18c-1.19-.78-2.58-1.16-3.82-1.16-2.54,0-3.68,1.14-3.68,2.54,0,3.83,8.57,1.52,8.57,6.61,0,2.06-1.63,3.81-5.19,3.81-2.09,0-4.13-.74-5.17-1.82Z"/>
  </g>
</svg>
